<svg id="Layer_1" data-name="Layer 1" xmlns="http://www.w3.org/2000/svg" viewBox="0 0 378.8 60.14"><defs><style>.cls-1{fill:#fff;}</style></defs><title>assets</title><path class="cls-1" d="M43.26,27.77c-.62-.63-.91-1.11-.31-2a17,17,0,0,0,2.91-10.93A14.08,14.08,0,0,0,35.61,1.41a26.84,26.84,0,0,0-8-1.3C19.2,0,10.82,0,2.44,0,.36,0,0,.36,0,2.41v55c0,2.23.31,2.55,2.56,2.55,7.43,0,14.86,0,22.29,0a49.35,49.35,0,0,0,7-.3c4.71-.68,9-2.31,12.19-6A18.56,18.56,0,0,0,43.26,27.77ZM14,14.18A1.94,1.94,0,0,1,16.2,12a86.91,86.91,0,0,1,10,.12c.22,0,.43.06.64.1,3.06.67,5.32,3.11,5.3,5.72s-2.16,4.95-5.2,5.67a7.57,7.57,0,0,1-1.4.23c-1.6,0-3.19,0-4.79,0v0c-1.46,0-2.93,0-4.39,0s-2.24-.67-2.29-2.22C13.94,19.18,13.94,16.68,14,14.18ZM31.33,46.57a9,9,0,0,1-5.61,1.65q-4.47,0-8.94,0c-2.19,0-2.8-.63-2.82-2.78s0-4.49,0-6.74c0-1.77.71-2.4,2.48-2.43s3.45,0,5.18,0,3.28,0,4.92,0a7.9,7.9,0,0,1,4.82,1.65A5.3,5.3,0,0,1,31.33,46.57Zm61.91-.82a2,2,0,0,1-1.51,2.17c-5.35,1.85-10.59,4-16,5.6A18.6,18.6,0,0,1,51.87,36.28c-.39-9.54-.16-19.09-.22-28.63,0-1.77.57-2.35,2.31-2.36h9.45c1.83,0,2.32.49,2.32,2.31q0,12.18,0,24.35a28.86,28.86,0,0,0,.46,5.8,4.65,4.65,0,0,0,5,4,22.11,22.11,0,0,0,6.47-1.22,2,2,0,0,0,1.49-2.19q-.06-15,0-30.06c0-2.62.35-3,3-3h8.42c2.23,0,2.67.43,2.67,2.63q0,9.45,0,18.91C93.21,33.14,93.18,39.44,93.24,45.75Zm46.26,13c.25.32.77.62.56,1.08s-.78.24-1.19.24c-3.8,0-7.6-.05-11.4,0a5.76,5.76,0,0,1-4.93-2.33q-3.11-3.91-6.2-7.82l-.81-1c-.43-.54-.85-1.19-1.68-.9s-.89,1.08-.89,1.83c0,1.6,0,3.19,0,4.79,0,1.21,0,2.42,0,3.63a1.57,1.57,0,0,1-1.66,1.76c-3.54,0-7.08,0-10.62,0A1.52,1.52,0,0,1,99,58.43c0-.52,0-1,0-1.55V30.18Q99,16.65,99,3.1c0-2.5.26-2.76,2.73-2.76q4.47,0,8.94,0c1.88,0,2.28.4,2.28,2.29,0,9.07,0,18.14,0,27.21,0,.95-.31,2.18,1,2.54s1.49-.82,2-1.53c2.39-3.39,4.78-6.78,7.11-10.21a5.23,5.23,0,0,1,4.79-2.49c3.71.09,7.42,0,11.14,0,.37,0,.85-.15,1.06.27s-.22.7-.44,1c-4.49,6.34-9,12.69-13.53,19a2.1,2.1,0,0,0,0,3C130.62,47.19,135.05,53,139.5,58.77ZM290.39,19.18a31.45,31.45,0,0,0-2.23-10.34A13,13,0,0,0,279.44,1a26,26,0,0,0-9.25-.74c-6,.5-11.53,2.44-17,4.74a3.56,3.56,0,0,0-2.5,3.9c.09,10,0,20,0,30.07,0,1.3,0,2.6,0,3.89,0,1-.4,1.39-1.42,1.28-3.14-.33-4.12-1.41-4.17-4.57-.1-7.29.24-14.6-.22-21.89-.48-7.46-4.49-11.94-11.9-12.87-7-.87-13.87.1-20.74,1.25A3.86,3.86,0,0,0,209,10.22c0,2.68.17,5.35.31,8,.09,1.8.24,1.87,2,1.54a134.86,134.86,0,0,1,15.26-2.09,9.07,9.07,0,0,1,3.08.28,2,2,0,0,1,1.47,2.31c0,1.15-.95,1-1.71,1.09-1,.08-2,.15-3,.25-3.65.34-7.34.38-10.87,1.52-3.79,1.23-6.92,3.34-8.27,7.24a18.75,18.75,0,0,0,1.45,16.46c.69,1.15.59,1.36-.8,1.37-3.28,0-6.57,0-9.85,0-1.65,0-1.74-.11-1.74-1.8V24.66q0-11.08,0-22.17c0-1.7-.46-2.16-2.16-2.17-3.11,0-6.22,0-9.33,0-2.27,0-2.61.34-2.61,2.65V39.78c0,.48,0,.95,0,1.43a.75.75,0,0,1-.68.79,4.16,4.16,0,0,1-5.11-3.94c0-2.77,0-5.54,0-8.3-.08-5.05.25-10.11-.26-15.15C175.53,8.15,172,4.12,165.67,2.83a23.42,23.42,0,0,0-3.34-.4,90,90,0,0,0-18.18,1.33,4.34,4.34,0,0,0-3.83,4.88c.14,2.49.3,5,.44,7.5.1,1.76.2,1.85,1.92,1.54a145.6,145.6,0,0,1,15-2.08,9.86,9.86,0,0,1,3.34.25,2.09,2.09,0,0,1,1.51,2.4c-.15,1.14-1,1-1.78,1-2.33.19-4.66.33-7,.54a27.45,27.45,0,0,0-8.33,1.78,11.92,11.92,0,0,0-7.33,8.47,21.92,21.92,0,0,0-.39,7.48c.56,5.3,2.85,9.46,8.11,11.5A18.78,18.78,0,0,0,162.79,48c.64-.37,1.17-.8,2-.22a18.32,18.32,0,0,0,16.33,3.08c.83-.23,1.21,0,1.19.91,0,2,0,4.07,0,6.1,0,1.65.62,2.24,2.29,2.25,2.33,0,4.67,0,7,0h25.28c1.85,0,2.31-.45,2.37-2.26,0-1.3.06-2.6,0-3.89,0-1,.4-1.4,1.41-1.33a18.06,18.06,0,0,0,11.11-2.79,1.21,1.21,0,0,1,1.53,0A18.38,18.38,0,0,0,249.54,53c.92-.24,1.18.13,1.17,1,0,1.25,0,2.51,0,3.76,0,1.79.43,2.21,2.23,2.23,3,0,6,0,8.95,0,2.52,0,2.77-.25,2.77-2.72q0-4.94,0-9.85c0-1,.31-1.45,1.47-1.35a36.9,36.9,0,0,0,8.91-.18c7.23-1.11,12.08-5,14.19-12.12A40.1,40.1,0,0,0,290.39,19.18ZM162.53,36.66a1.92,1.92,0,0,1-1.92,2c-1.46.15-2.92.32-4.38.41a4.52,4.52,0,0,1-4.6-3.6,4.39,4.39,0,0,1,3-5.13,42.65,42.65,0,0,1,7-.81c.69-.07.89.43.9,1,0,1,0,2.07,0,3.1S162.56,35.67,162.53,36.66ZM231,38.93a1.73,1.73,0,0,1-1.74,1.86c-1.45.16-2.91.34-4.37.45a4.54,4.54,0,0,1-4.69-3.63,4.38,4.38,0,0,1,2.93-5.12c2.29-.65,4.7-.53,7.05-.81.61-.07.82.37.82.91v3.23h0C231.05,36.86,231.06,37.89,231,38.93Zm45-10.94a5.22,5.22,0,0,1-4.6,4,16.52,16.52,0,0,1-3.43.25c-3.79,0-3.43.28-3.44-3.13,0-4.09,0-8.19,0-12.29A1.56,1.56,0,0,1,266.08,15a21.14,21.14,0,0,1,5.26-.49,4.51,4.51,0,0,1,4.46,3.31A18.19,18.19,0,0,1,276.08,28Zm102,30.82q-6.6-8.56-13.22-17.13c-1.31-1.7-1.32-1.7,0-3.5q6.6-9.3,13.21-18.6c.24-.33.72-.65.51-1.11s-.78-.28-1.18-.28c-3.72,0-7.44,0-11.15,0a5,5,0,0,0-4.57,2.4c-2.38,3.5-4.83,7-7.25,10.43a7.12,7.12,0,0,1-.79,1,1.1,1.1,0,0,1-2-.54,9.4,9.4,0,0,1-.15-2.06q0-13.35,0-26.7c0-2-.4-2.36-2.35-2.37q-4.41,0-8.82,0c-2.57,0-2.79.22-2.79,2.83V51.78c0,.51,0,1,0,1.55a.85.85,0,0,1-.6.89,4.3,4.3,0,0,1-5.14-3.33c-.06-.73,0-1.47,0-2.2-.13-7.17.37-14.35-.28-21.51-.55-6-3.5-11-10.83-12.17a50.9,50.9,0,0,0-13.05,0c-2.62.25-5.23.6-7.84,1a4.39,4.39,0,0,0-4.13,5c.12,2.72.32,5.43.45,8.15,0,.77.28,1.14,1.1,1,.33-.08.68-.12,1-.18a113.71,113.71,0,0,1,15.27-2,13,13,0,0,1,2.71.16,2.08,2.08,0,0,1,1.68,2.29c0,1.26-1,1.09-1.78,1.16l-5.81.48a30.17,30.17,0,0,0-9.49,1.85c-3,1.27-5.44,3.17-6.58,6.26A19.18,19.18,0,0,0,295,56.28a6.82,6.82,0,0,0,6.54,3.83c7.61,0,15.21,0,22.82,0h24.76c1.93,0,2.35-.43,2.37-2.37s0-3.8,0-5.7c0-.91,0-1.82.06-2.72a1.25,1.25,0,0,1,.93-1.27,1.28,1.28,0,0,1,1.34.59c.33.39.64.81,1,1.21q3.27,4.11,6.55,8.21a4.52,4.52,0,0,0,3.36,2c4.66.08,9.32,0,14.08,0A2.21,2.21,0,0,0,378.12,58.81ZM317.79,49a1.86,1.86,0,0,1-1.83,2c-1.45.15-2.9.36-4.36.45a4.53,4.53,0,0,1-4.72-3.74,4.38,4.38,0,0,1,3.46-5.13c2.15-.39,4.35-.49,6.53-.7.69-.07.92.38.93,1,0,1,0,2.07,0,3.1h0C317.8,46.9,317.84,47.93,317.79,49Z"/></svg>