<svg id="Layer_1" data-name="Layer 1" xmlns="http://www.w3.org/2000/svg" viewBox="0 0 368.44 90.96"><defs><style>.cls-1{fill:#fff;}</style></defs><title>assets</title><path class="cls-1" d="M368.33,72.24c-.11-4.08.42-9.1-.2-14-1.14-9-4.69-13.6-13.2-16a45.45,45.45,0,0,0-15.72-1.07,19.56,19.56,0,0,0-8.48,2.13A6.32,6.32,0,0,0,330,53.64a1.42,1.42,0,0,0,2,.13,14.71,14.71,0,0,1,2.28-1.23c4.37-2.06,8.9-3.11,13.73-2.13,5.38,1.08,8.1,4.36,7.8,9.28,0,.57-.08.86-.79.75-1.15-.17-2.32-.25-3.49-.31-5.72-.27-11.43-.28-17,1.1-6.38,1.57-9.61,5-10.61,11.44a17.84,17.84,0,0,0,.52,9c1.88,5.22,6.12,7.3,11.2,8a110.07,110.07,0,0,0,31.7-.74c.84-.13,1.15-.42,1.14-1.31C368.31,82.75,368.33,77.94,368.33,72.24Zm-12.66-2.58c-.08,1.73,0,3.46,0,5.2s0,3.46,0,5.19c0,.75-.19,1.09-1,1.19-3.95.52-7.9,1-11.89.33-.34,0-.68-.12-1-.19-5.6-1.15-6.42-5.1-4.86-9.77A4.66,4.66,0,0,1,340,69c3.14-1.27,6.45-1.13,9.74-1,1.6,0,3.19.28,4.79.35C355.45,68.31,355.7,68.74,355.67,69.66Z"/><path class="cls-1" d="M33.6,70.89c7.74-.36,13.1-4.55,12.64-12.59C46,54,44.89,50,41.77,46.84a20.77,20.77,0,0,0-14-6.33c-5.67-.38-11.13.26-16.07,3.1A22.71,22.71,0,0,0,1.09,57.15,32.14,32.14,0,0,0,.24,69.73c.91,9.92,6,16.39,15.22,19.22,9.09,2.8,18.16,1.6,27-1.65.55-.2.86-.4.57-1.12-1-2.53-2-5.08-2.9-7.64-.22-.57-.48-.69-1.06-.53-1.46.4-2.93.79-4.41,1.1a27.87,27.87,0,0,1-12.49.21c-4.1-1-7.22-3.24-8.78-7.34-.34-.9-.16-1.19.85-1.17,3.25.06,6.5,0,9.75,0v.08C27.19,70.91,30.4,71,33.6,70.89ZM21.91,62.33H13.73c-.48,0-.88.07-.91-.69A12.08,12.08,0,0,1,27.75,49.57a9,9,0,0,1,6.36,9.17,3.79,3.79,0,0,1-4,3.58C27.36,62.36,24.63,62.33,21.91,62.33Z"/><path class="cls-1" d="M107.85,41.28a27.7,27.7,0,0,0-14-.15A22.39,22.39,0,0,0,77.23,55.35a29.57,29.57,0,0,0-1.55,14.16c1,9.93,5.74,16.47,15.18,19.41C100,91.76,109.09,90.55,118,87.3c.72-.26.73-.65.48-1.3-1-2.45-1.91-4.91-2.8-7.39-.23-.64-.49-.79-1.13-.59-1,.3-1.91.54-2.88.76-4.38,1-8.78,1.62-13.25.71s-7.77-3.07-9.48-7.4c-.35-.91-.28-1.3.87-1.27,3.2.06,6.41,0,9.61,0v.09c3,0,6.06,0,9.1,0a16.9,16.9,0,0,0,6.58-1.3c4-1.72,6.38-4.79,6.61-9.16C122.21,50.68,117.25,44,107.85,41.28Zm1.78,17a3.86,3.86,0,0,1-4.17,4c-2.69,0-5.37,0-8.06,0s-5.45,0-8.18,0c-.54,0-.85,0-.87-.74-.2-8.05,7.5-14.18,15.08-12A9.06,9.06,0,0,1,109.63,58.31Z"/><path class="cls-1" d="M215.13,42.38c-4.76-2.25-9.83-2.21-14.9-1.7a21.67,21.67,0,0,0-10,3.61,23.88,23.88,0,0,0-9.83,13.87c-1.24,4.45-.92,8.86-.33,13.26.88,6.54,4,11.76,9.81,15.25a28,28,0,0,0,12.46,3.61,45.81,45.81,0,0,0,19.86-3c.52-.2.71-.44.46-1.06q-1.51-3.8-2.9-7.64c-.24-.68-.57-.69-1.17-.53-1.45.41-2.92.8-4.4,1.1-4.19.84-8.4,1.23-12.61.14-3.94-1-6.94-3.22-8.51-7.12-.37-.92-.36-1.37.88-1.34,3.24.08,6.49,0,9.74,0v.09c2.9,0,5.8,0,8.7,0a17.6,17.6,0,0,0,6.11-1c4.09-1.49,6.77-4.29,7.22-8.67C226.55,52.82,223.16,46.17,215.13,42.38Zm-1.72,17.33c-.55,1.88-1.74,2.6-3.85,2.62-2.68,0-5.36,0-8,0h-8.18c-.45,0-1,.15-.92-.66C192.76,57.25,194.6,52,200,50c4.23-1.57,8.71-.88,11.21,2C213.19,54.15,214.29,56.72,213.41,59.71Z"/><path class="cls-1" d="M233.15,68.21c0-7,0-13.94,0-20.92a1.39,1.39,0,0,1,1.18-1.61c7.28-2.2,14.65-3.93,22.3-3.81,5.14.07,10.11,1,14.41,4a17.66,17.66,0,0,1,7.63,14.9c.14,9.48,0,19,.06,28.45,0,.9-.21,1.19-1.14,1.18-3.69-.06-7.37-.07-11.05,0-1,0-1.19-.37-1.18-1.28,0-8.58,0-17.15,0-25.73a14.3,14.3,0,0,0-.47-3.85,8.58,8.58,0,0,0-7.43-6.53,23.86,23.86,0,0,0-10.63,1.06c-.84.24-.71.82-.71,1.42V86.46c0,.91-.06,1.82,0,2.73s-.19,1.27-1.21,1.25c-3.55-.07-7.1-.06-10.65,0-.94,0-1.14-.3-1.13-1.18C233.16,82.25,233.15,75.23,233.15,68.21Z"/><path class="cls-1" d="M151.83,77.72l5.72-14c2.26-5.57,4.59-11.11,6.75-16.72a6.39,6.39,0,0,1,5.61-4.33,11.73,11.73,0,0,1,6.34,1c1.79.79,2.07,1.35,1.52,3.25a90.25,90.25,0,0,1-4.11,10.64C169,68.17,163.9,78.62,158.83,89.09a2,2,0,0,1-2.14,1.36c-3.55-.1-7.1,0-10.65,0a1.22,1.22,0,0,1-1.34-.72c-6-12-12.11-24-17.12-36.51A20.46,20.46,0,0,1,126.24,49a4.78,4.78,0,0,1,3.62-5.86,13.55,13.55,0,0,1,5.91-.23c2.24.32,3.25,1.74,4,3.68,3.92,9.65,7.58,19.41,11.26,29.15C151.28,76.3,151.5,76.85,151.83,77.72Z"/><path class="cls-1" d="M66.89,57.15c0,10.57,0,21.14,0,31.71,0,1.38-.41,1.61-1.66,1.58-3.37-.08-6.75,0-10.13,0-.81,0-1.12-.17-1.12-1.06q0-30.79,0-61.58c0-2.5,1-3.78,3.54-4.65,2.93-1,5.8-.53,8.65.43.77.26.63.82.63,1.36V57.15Z"/><path class="cls-1" d="M286.73,14.6A14.49,14.49,0,0,1,301.35,0a14.74,14.74,0,0,1,14.58,15A14.78,14.78,0,0,1,301,29.33C293,29.17,286.39,22.33,286.73,14.6Z"/><path class="cls-1" d="M311.14,65.26c.43,1,1.39,1.6,2,2.49,3.27,4.76,3.79,9.82,1.3,15A13.74,13.74,0,0,1,301.62,91a14.31,14.31,0,0,1-14.71-11.89,14.09,14.09,0,0,1,3.44-12.43c.39-.44,1-.71,1.12-1.38a.28.28,0,0,1,.36-.06,15.16,15.16,0,0,0,7.61,3.34,14,14,0,0,0,10.38-2.68,5.63,5.63,0,0,1,.95-.67A.31.31,0,0,1,311.14,65.26Z"/><path class="cls-1" d="M311.14,65.26h-.21a3.06,3.06,0,0,1-1.75-.74A14,14,0,0,0,301.91,62a13.71,13.71,0,0,0-8.52,2.5c-.52.37-1,.9-1.71.74h-.21a14,14,0,0,1-4.42-14,13.71,13.71,0,0,1,10.46-10.93,14.46,14.46,0,0,1,18.23,11.79A14,14,0,0,1,311.14,65.26Z"/><path class="cls-1" d="M291.68,65.27A24.87,24.87,0,0,1,295.51,63a6.71,6.71,0,0,1,3.13-.85c.91.09,1.58-.61,2.49-.54a17.62,17.62,0,0,1,8.34,2.73c.48.31,1.17.36,1.46,1a12,12,0,0,1-6.88,3.54,14.46,14.46,0,0,1-9.75-1.52A7.45,7.45,0,0,1,291.68,65.27Z"/></svg>