<svg id="Layer_1" data-name="Layer 1" xmlns="http://www.w3.org/2000/svg" viewBox="0 0 352.56 30.6"><defs><style>.cls-1{fill:#fff;}</style></defs><title>assets</title><path class="cls-1" d="M29.62,16.49A13.23,13.23,0,0,1,26,26.26,14.13,14.13,0,0,1,15.22,30.6a14.66,14.66,0,0,1-10.8-4.42A14.77,14.77,0,0,1,0,15.3,14.76,14.76,0,0,1,4.42,4.42,14.66,14.66,0,0,1,15.22,0a16.13,16.13,0,0,1,6.09,1.15A12.19,12.19,0,0,1,26,4.38l-2.7,2.7a9.08,9.08,0,0,0-3.5-2.56,11.63,11.63,0,0,0-4.6-.92,11,11,0,0,0-8.1,3.31A11.54,11.54,0,0,0,3.85,15.3a11.52,11.52,0,0,0,3.27,8.38A11,11,0,0,0,15.22,27a10.89,10.89,0,0,0,7.28-2.46,9.78,9.78,0,0,0,3.35-6.75H15.22V14.28H29.41A12.22,12.22,0,0,1,29.62,16.49ZM42.34,30.6a9.57,9.57,0,0,1-7.28-3,10.7,10.7,0,0,1-2.87-7.65A10.91,10.91,0,0,1,35,12.29a9.22,9.22,0,0,1,7.12-3,9.17,9.17,0,0,1,7.1,2.88c1.76,1.92,2.64,4.62,2.64,8.08l0,.41H36a6.52,6.52,0,0,0,2,4.74,6.3,6.3,0,0,0,4.5,1.8q3.6,0,5.65-3.6L51.5,25.2a10.08,10.08,0,0,1-3.74,4A10.4,10.4,0,0,1,42.34,30.6Zm-6-13.09h11.5a5,5,0,0,0-1.7-3.46A6,6,0,0,0,42,12.68,5.46,5.46,0,0,0,38.35,14,6.29,6.29,0,0,0,36.32,17.51ZM62.59,30.27a5.69,5.69,0,0,1-4.07-1.51,5.63,5.63,0,0,1-1.66-4.22V13.34H53.34V9.9h3.52V3.76h3.76V9.9h4.91v3.44H60.62v10A3.67,3.67,0,0,0,61.4,26a2.55,2.55,0,0,0,1.76.71,3.71,3.71,0,0,0,.88-.1,5,5,0,0,0,.8-.27L66,29.74A10.17,10.17,0,0,1,62.59,30.27ZM83,3a2.57,2.57,0,0,1-.78,1.88,2.57,2.57,0,0,1-1.88.78,2.54,2.54,0,0,1-1.88-.78A2.57,2.57,0,0,1,77.68,3a2.57,2.57,0,0,1,.78-1.89A2.57,2.57,0,0,1,80.34.33,2.65,2.65,0,0,1,83,3ZM82.22,9.9v20H78.46V9.9Zm4.91,0h3.6v2.78h.16a6.63,6.63,0,0,1,2.64-2.45,7.51,7.51,0,0,1,3.7-1,7.43,7.43,0,0,1,5.67,2.1,8.42,8.42,0,0,1,2,6v12.6h-3.76V17.59q-.12-4.9-5-4.91a4.69,4.69,0,0,0-3.76,1.82,6.6,6.6,0,0,0-1.52,4.36V29.94H87.13Zm39.1,20.37a5.73,5.73,0,0,1-4.07-1.51,5.63,5.63,0,0,1-1.65-4.22V13.34H117V9.9h3.52V3.76h3.76V9.9h4.91v3.44h-4.91v10a3.67,3.67,0,0,0,.78,2.72,2.55,2.55,0,0,0,1.76.71,3.71,3.71,0,0,0,.88-.1,4.58,4.58,0,0,0,.79-.27l1.19,3.36A10.23,10.23,0,0,1,126.23,30.27Zm5.2-10.35a10.63,10.63,0,0,1,2.9-7.65,9.9,9.9,0,0,1,7.41-3,9.76,9.76,0,0,1,7.36,3,10.55,10.55,0,0,1,3,7.65,10.45,10.45,0,0,1-3,7.65,9.76,9.76,0,0,1-7.36,3,9.91,9.91,0,0,1-7.41-3A10.63,10.63,0,0,1,131.43,19.92Zm3.76,0a7.37,7.37,0,0,0,1.88,5.24,6.44,6.44,0,0,0,9.33,0,7.37,7.37,0,0,0,1.88-5.24,7.27,7.27,0,0,0-1.88-5.19,6.33,6.33,0,0,0-9.33,0A7.27,7.27,0,0,0,135.19,19.92Zm37.68,10h-3.6V27.16h-.17a6.75,6.75,0,0,1-2.63,2.46,7.65,7.65,0,0,1-3.71,1,7.38,7.38,0,0,1-5.66-2.11,8.36,8.36,0,0,1-2-6V9.9h3.77V22.25c.08,3.28,1.73,4.91,5,4.91a4.68,4.68,0,0,0,3.76-1.82A6.56,6.56,0,0,0,169.1,21V9.9h3.77Zm13.54.66a9.91,9.91,0,0,1-7.41-3,10.8,10.8,0,0,1-2.9-7.65,10.63,10.63,0,0,1,2.9-7.65,9.9,9.9,0,0,1,7.41-3,9.44,9.44,0,0,1,5.36,1.53A9.34,9.34,0,0,1,195.2,15l-3.43,1.43a5.68,5.68,0,0,0-5.61-3.76,5.83,5.83,0,0,0-4.46,2.09,7.54,7.54,0,0,0-1.84,5.15,7.57,7.57,0,0,0,1.84,5.16,5.82,5.82,0,0,0,4.46,2.08A5.89,5.89,0,0,0,192,23.4l3.35,1.43a8.9,8.9,0,0,1-3.45,4.23A9.72,9.72,0,0,1,186.41,30.6ZM198.6.65h3.76V9.9l-.16,2.78h.16A6.63,6.63,0,0,1,205,10.23a8.19,8.19,0,0,1,9.37,1.12,8.42,8.42,0,0,1,2,6v12.6h-3.76V18.08q0-5.4-4.79-5.4a4.86,4.86,0,0,0-3.87,1.9A6.75,6.75,0,0,0,202.36,19V29.94H198.6ZM258.16,9.9l-6.47,20h-3.84l-5-15.38-5,15.38H234.1l-6.46-20h3.93L236,25h0L241,9.9h3.88L249.85,25h0L254.31,9.9ZM265.48,3a2.57,2.57,0,0,1-.78,1.88,2.57,2.57,0,0,1-1.88.78,2.54,2.54,0,0,1-1.88-.78A2.57,2.57,0,0,1,260.16,3a2.57,2.57,0,0,1,.78-1.89,2.57,2.57,0,0,1,1.88-.77A2.65,2.65,0,0,1,265.48,3ZM264.7,9.9v20h-3.76V9.9Zm12.64,20.37a5.71,5.71,0,0,1-4.07-1.51,5.63,5.63,0,0,1-1.66-4.22V13.34H268.1V9.9h3.51V3.76h3.77V9.9h4.91v3.44h-4.91v10a3.71,3.71,0,0,0,.77,2.72,2.57,2.57,0,0,0,1.76.71,3.65,3.65,0,0,0,.88-.1,4.7,4.7,0,0,0,.8-.27l1.19,3.36A10.27,10.27,0,0,1,277.34,30.27ZM284.09.65h3.76V9.9l-.16,2.78h.16a6.63,6.63,0,0,1,2.64-2.45,7.51,7.51,0,0,1,3.7-1,7.43,7.43,0,0,1,5.67,2.1,8.42,8.42,0,0,1,2,6v12.6h-3.76V18.08q0-5.4-4.79-5.4a4.85,4.85,0,0,0-3.86,1.9A6.76,6.76,0,0,0,287.85,19V29.94h-3.76Zm48.76,29.29h-3.6V27.16h-.17a6.75,6.75,0,0,1-2.63,2.46,7.63,7.63,0,0,1-3.71,1,7.38,7.38,0,0,1-5.66-2.11,8.41,8.41,0,0,1-2-6V9.9h3.77V22.25c.08,3.28,1.73,4.91,4.95,4.91a4.68,4.68,0,0,0,3.76-1.82A6.56,6.56,0,0,0,329.08,21V9.9h3.77Zm19.71-5.56a5.42,5.42,0,0,1-2.29,4.42,9,9,0,0,1-5.76,1.8A9.17,9.17,0,0,1,339.19,29a8.62,8.62,0,0,1-3.27-4.15l3.35-1.43a6.23,6.23,0,0,0,2.15,2.8,5.2,5.2,0,0,0,3.09,1,5.48,5.48,0,0,0,3-.77,2.21,2.21,0,0,0,1.21-1.84c0-1.29-1-2.23-3-2.83l-3.43-.86q-5.85-1.47-5.85-5.64a5.21,5.21,0,0,1,2.23-4.4,10.26,10.26,0,0,1,10.51-.39,7,7,0,0,1,3,3.4l-3.36,1.39a4.15,4.15,0,0,0-1.86-2,5.81,5.81,0,0,0-2.88-.72,4.78,4.78,0,0,0-2.64.74,2.12,2.12,0,0,0-1.17,1.8c0,1.14,1.08,2,3.24,2.45l3,.78Q352.56,19.84,352.56,24.38Z"/></svg>