<svg id="Layer_1" data-name="Layer 1" xmlns="http://www.w3.org/2000/svg" viewBox="0 0 95.51 95.49"><defs><style>.cls-1{fill:#fff;}</style></defs><title>assets</title><path class="cls-1" d="M0,76.75V18.59c.11-.37.25-.75.33-1.13Q3.3,3.29,17.47.37A11.29,11.29,0,0,0,18.59,0H76.75c.3.1.6.23.91.3,11.52,2.53,17.75,10.14,17.79,22,.06,17.08.09,34.17,0,51.25-.07,12.75-8.56,21.68-21.26,21.85Q48,95.7,21.75,95.24C9.83,95,2.26,88.12.36,77.88A9.85,9.85,0,0,0,0,76.75ZM12.44,47.62c.2,5.86-.19,11.74.46,17.61,1,9.34,7.4,16.22,16.71,17.08a196.79,196.79,0,0,0,35.92,0c9.48-.86,16.15-8,16.82-17.48a243.46,243.46,0,0,0,0-34.27A18.44,18.44,0,0,0,64.77,13a244.83,244.83,0,0,0-34.26,0c-9.63.67-16.44,7.44-17.57,17C12.24,35.87,12.66,41.75,12.44,47.62ZM47.61,18.55c5.79.11,11.6-.47,17.36.38,6.59,1,10.81,4.91,11.38,11.54a200.4,200.4,0,0,1,0,34.47c-.57,6.59-4.83,10.58-11.44,11.46-7.11.95-14.27.35-21.41.43a81.9,81.9,0,0,1-12.13-.32C23.05,75.35,18.83,71,18.6,62.62q-.39-14.88,0-29.77c.23-9.11,5.31-13.89,14.74-14.27C38.08,18.39,42.85,18.55,47.61,18.55Zm0,11.15a18,18,0,1,0,18,18.05A18,18,0,0,0,47.58,29.7Zm22.84-.86a3.81,3.81,0,0,0-3.9-3.93,3.75,3.75,0,0,0-3.94,3.85,3.92,3.92,0,1,0,7.84.08ZM47.65,59.69a12,12,0,1,0-.15-24,12,12,0,0,0,.15,24Z"/></svg>