<svg id="Layer_1" data-name="Layer 1" xmlns="http://www.w3.org/2000/svg" viewBox="0 0 105.45 25.03"><defs><style>.cls-1{fill:#fff;}</style></defs><title>lazada</title><g id="g975"><g id="layer1-5"><g id="layer1-2"><g id="g1006"><g id="g35"><path id="path33" class="cls-1" d="M0,1.38H4V20.82h7v3.83H0L0,1.38"/></g><g id="g41"><path id="path39" class="cls-1" d="M20.36,7.21a6.82,6.82,0,0,1,5.48,2.64V7.56h3.77V24.69H25.84V22.4A6.84,6.84,0,0,1,20.36,25c-4.7,0-8.27-4-8.27-8.91s3.57-8.91,8.27-8.91M21,10.64C18,10.64,16,13,16,16.12S18,21.6,21,21.6s5.07-2.4,5.07-5.48-2-5.48-5.07-5.48"/></g><g id="g47"><path id="path45" class="cls-1" d="M32.55,21.71l9-10.73H32.68V7.56H46.4v3L37.45,21.26H46.6v3.43H32.55v-3"/></g><g id="g53"><path id="path51" class="cls-1" d="M56.18,7.21a6.85,6.85,0,0,1,5.49,2.64V7.56h3.77V24.69H61.67V22.4A6.87,6.87,0,0,1,56.18,25c-4.69,0-8.25-4-8.25-8.91s3.56-8.91,8.25-8.91m.69,3.43c-3,0-5.07,2.4-5.07,5.48s2.05,5.48,5.07,5.48,5.07-2.4,5.07-5.48-2-5.48-5.07-5.48"/></g><g id="g59"><path id="path57" class="cls-1" d="M76.2,7.21a6.82,6.82,0,0,1,5.48,2.64V0h3.77V24.69H81.68V22.4A6.84,6.84,0,0,1,76.2,25c-4.69,0-8.26-4-8.26-8.91s3.57-8.91,8.26-8.91m.69,3.43c-3,0-5.07,2.4-5.07,5.48s2.06,5.48,5.07,5.48S82,19.2,82,16.12s-2-5.48-5.07-5.48"/></g><g id="g65"><path id="path63" class="cls-1" d="M96.22,7.21a6.81,6.81,0,0,1,5.47,2.64V7.56h3.76V24.69h-3.77V22.4A6.85,6.85,0,0,1,96.2,25c-4.7,0-8.27-4-8.27-8.91s3.59-8.91,8.29-8.91m.68,3.43c-3.05,0-5.07,2.4-5.07,5.48s2.06,5.48,5.07,5.48S102,19.2,102,16.12s-2-5.48-5.07-5.48"/></g></g></g></g></g></svg>