<?xml version="1.0" encoding="utf-8"?>
<!-- Generator: Adobe Illustrator 25.0.0, SVG Export Plug-In . SVG Version: 6.00 Build 0)  -->
<svg version="1.0" id="Layer_1" xmlns="http://www.w3.org/2000/svg" xmlns:xlink="http://www.w3.org/1999/xlink" x="0px" y="0px"
	 viewBox="0 0 356.72 46.01" style="enable-background:new 0 0 356.72 46.01;" xml:space="preserve">
<style type="text/css">
	.st0{fill:#FFF200;}
</style>
<g>
	<path class="st0" d="M20.46,46.01c-6.04,0-10.96-1.96-14.76-5.89C1.9,36.19,0,31.07,0,24.76C0,18.09,1.93,12.7,5.79,8.59
		c3.86-4.12,8.98-6.17,15.35-6.17c6.02,0,10.88,1.97,14.6,5.91c3.71,3.94,5.57,9.13,5.57,15.58c0,6.63-1.93,11.97-5.78,16.02
		C31.68,43.98,26.66,46.01,20.46,46.01z M20.87,10.58c-3.33,0-5.98,1.25-7.94,3.75S10,20.14,10,24.26c0,4.17,0.98,7.48,2.94,9.91
		s4.53,3.65,7.7,3.65c3.27,0,5.87-1.18,7.79-3.54c1.92-2.36,2.88-5.64,2.88-9.83c0-4.37-0.93-7.77-2.79-10.2
		C26.66,11.8,24.11,10.58,20.87,10.58z"/>
	<path class="st0" d="M67.03,7.82c-1.2-0.47-2.34-0.71-3.44-0.71c-2.98,0-4.47,1.62-4.47,4.85v3.2H66v6.85h-6.88v23.26h-9.26V22.02
		h-5.06v-6.85h5.06v-3.73c0-3.43,1.12-6.19,3.35-8.29C55.45,1.05,58.49,0,62.33,0c1.88,0,3.45,0.2,4.7,0.59V7.82z"/>
	<path class="st0" d="M90.11,7.82c-1.2-0.47-2.34-0.71-3.44-0.71c-2.98,0-4.47,1.62-4.47,4.85v3.2h6.88v6.85H82.2v23.26h-9.26V22.02
		h-5.06v-6.85h5.06v-3.73c0-3.43,1.12-6.19,3.35-8.29C78.53,1.05,81.57,0,85.41,0c1.88,0,3.45,0.2,4.7,0.59V7.82z"/>
	<path class="st0" d="M103.14,45.28h-9.29V0.71h9.29V45.28z"/>
	<path class="st0" d="M115.66,10.41c-1.57,0-2.85-0.47-3.85-1.4c-1-0.93-1.5-2.07-1.5-3.43c0-1.39,0.5-2.53,1.5-3.41
		c1-0.88,2.28-1.32,3.85-1.32c1.59,0,2.88,0.44,3.87,1.32c0.99,0.88,1.49,2.02,1.49,3.41c0,1.41-0.5,2.57-1.49,3.47
		C118.54,9.96,117.25,10.41,115.66,10.41z M120.25,45.28h-9.29V15.17h9.29V45.28z"/>
	<path class="st0" d="M157.15,45.28h-9.26V28.55c0-4.66-1.67-7-5-7c-1.61,0-2.93,0.62-3.97,1.85s-1.56,2.8-1.56,4.7v17.17h-9.29
		V15.17h9.29v4.76h0.12c2.21-3.67,5.44-5.5,9.67-5.5c6.66,0,10,4.14,10,12.41V45.28z"/>
	<path class="st0" d="M191.55,32.87h-19.64c0.31,4.37,3.07,6.56,8.26,6.56c3.31,0,6.22-0.78,8.73-2.35v6.7
		c-2.78,1.49-6.4,2.23-10.85,2.23c-4.86,0-8.63-1.35-11.32-4.04c-2.69-2.69-4.03-6.45-4.03-11.28c0-5,1.45-8.96,4.35-11.88
		c2.9-2.92,6.47-4.38,10.7-4.38c4.39,0,7.79,1.3,10.19,3.91c2.4,2.61,3.6,6.15,3.6,10.61V32.87z M182.93,27.17
		c0-4.31-1.75-6.47-5.23-6.47c-1.49,0-2.78,0.62-3.87,1.85s-1.75,2.77-1.98,4.62H182.93z"/>
	<path class="st0" d="M212.66,43.66v-9.41c1.71,1.43,3.56,2.5,5.56,3.22c2,0.72,4.02,1.07,6.06,1.07c1.2,0,2.24-0.11,3.13-0.32
		c0.89-0.22,1.64-0.51,2.23-0.9c0.6-0.38,1.04-0.83,1.34-1.35c0.29-0.52,0.44-1.08,0.44-1.69c0-0.82-0.24-1.56-0.71-2.21
		c-0.47-0.65-1.11-1.24-1.93-1.79c-0.81-0.55-1.78-1.08-2.9-1.59c-1.12-0.51-2.32-1.03-3.62-1.56c-3.29-1.37-5.75-3.05-7.36-5.03
		c-1.62-1.98-2.43-4.37-2.43-7.17c0-2.19,0.44-4.08,1.32-5.66c0.88-1.58,2.08-2.88,3.6-3.9c1.52-1.02,3.28-1.77,5.28-2.25
		c2-0.48,4.12-0.72,6.35-0.72c2.19,0,4.14,0.13,5.84,0.4c1.7,0.26,3.26,0.67,4.69,1.22v8.79c-0.71-0.49-1.48-0.92-2.31-1.29
		c-0.83-0.37-1.69-0.68-2.57-0.93c-0.88-0.24-1.76-0.43-2.63-0.54c-0.87-0.12-1.7-0.18-2.48-0.18c-1.08,0-2.06,0.1-2.94,0.31
		c-0.88,0.21-1.63,0.5-2.23,0.87c-0.61,0.37-1.08,0.82-1.41,1.34c-0.33,0.52-0.5,1.1-0.5,1.75c0,0.71,0.19,1.34,0.56,1.9
		c0.37,0.56,0.9,1.09,1.59,1.59c0.69,0.5,1.52,0.99,2.5,1.47c0.98,0.48,2.09,0.98,3.32,1.48c1.69,0.71,3.2,1.46,4.54,2.25
		c1.34,0.79,2.49,1.69,3.46,2.69c0.96,1,1.7,2.14,2.21,3.43c0.51,1.28,0.76,2.78,0.76,4.48c0,2.35-0.45,4.33-1.34,5.92
		c-0.89,1.6-2.1,2.89-3.63,3.88c-1.53,0.99-3.31,1.7-5.34,2.13c-2.03,0.43-4.17,0.65-6.42,0.65c-2.31,0-4.51-0.2-6.6-0.59
		C215.99,45.03,214.19,44.44,212.66,43.66z"/>
	<path class="st0" d="M264.14,44.92c-1.37,0.73-3.44,1.09-6.2,1.09c-6.55,0-9.82-3.4-9.82-10.2V22.02h-4.88v-6.85h4.88v-6.5
		l9.26-2.65v9.14h6.76v6.85h-6.76v12.17c0,3.14,1.24,4.7,3.73,4.7c0.98,0,1.99-0.28,3.03-0.85V44.92z"/>
	<path class="st0" d="M283.48,46.01c-5.02,0-8.96-1.41-11.83-4.22s-4.31-6.63-4.31-11.45c0-4.98,1.49-8.87,4.47-11.69
		c2.98-2.81,7.01-4.22,12.08-4.22c5,0,8.92,1.41,11.76,4.22c2.84,2.81,4.26,6.53,4.26,11.16c0,5-1.46,8.95-4.39,11.85
		C292.59,44.56,288.58,46.01,283.48,46.01z M283.72,21.55c-2.2,0-3.9,0.75-5.12,2.26c-1.21,1.51-1.82,3.65-1.82,6.41
		c0,5.78,2.33,8.67,7,8.67c4.45,0,6.67-2.97,6.67-8.91C290.45,24.36,288.21,21.55,283.72,21.55z"/>
	<path class="st0" d="M325.58,23.55c-1.12-0.61-2.42-0.91-3.91-0.91c-2.02,0-3.6,0.74-4.73,2.22c-1.14,1.48-1.71,3.49-1.71,6.04
		v14.38h-9.29V15.17h9.29v5.59h0.12c1.47-4.08,4.12-6.12,7.94-6.12c0.98,0,1.74,0.12,2.29,0.35V23.55z"/>
	<path class="st0" d="M356.72,32.87h-19.64c0.31,4.37,3.07,6.56,8.26,6.56c3.31,0,6.22-0.78,8.73-2.35v6.7
		c-2.78,1.49-6.4,2.23-10.85,2.23c-4.86,0-8.63-1.35-11.32-4.04c-2.69-2.69-4.03-6.45-4.03-11.28c0-5,1.45-8.96,4.35-11.88
		c2.9-2.92,6.47-4.38,10.7-4.38c4.39,0,7.79,1.3,10.19,3.91c2.4,2.61,3.6,6.15,3.6,10.61V32.87z M348.1,27.17
		c0-4.31-1.75-6.47-5.23-6.47c-1.49,0-2.78,0.62-3.87,1.85s-1.75,2.77-1.98,4.62H348.1z"/>
</g>
</svg>
