<svg id="Layer_1" data-name="Layer 1" xmlns="http://www.w3.org/2000/svg" viewBox="0 0 253.76 87.58"><defs><style>.cls-1{fill:#fff;}</style></defs><title>assets</title><path class="cls-1" d="M38.52,87.58C35.68,86.1,32.45,86,29.46,85a43.65,43.65,0,0,1,4.37-83.8c25.48-5.76,50,10.64,53.67,36.72A41.75,41.75,0,0,1,80.71,67.6c-.85,1.27-1.41,2.12,0,3.62,6.63,7,5.66,12-3,16.36H75.06A19.79,19.79,0,0,1,68,82.48c-.57-.64-1.17-1.48-2.21-.84C60.46,85,54.38,86,48.49,87.58ZM53.2,67.9c-2.15-2.25-4.2-4.13-5.91-6.27A8.1,8.1,0,0,1,48.44,50.1c3.54-3.11,7.82-3,11.59.55a91.25,91.25,0,0,1,6.18,7.2c7.22-12.23,5-26.17-4.78-34.4a26.37,26.37,0,0,0-34.12-.17A26.17,26.17,0,0,0,53.2,67.9Z"/><path class="cls-1" d="M253.76,62.33c-1.1,1.07-1,2.59-1.48,3.9a25.69,25.69,0,0,1-49.63-5.59c-1.31-12.13,5.57-23.72,17.28-27,14.06-3.9,28.73.95,33.23,19,.1.43.11.86.6,1.06Zm-40.62-4.54a15,15,0,1,0,14.75-15.22A15,15,0,0,0,213.14,57.79Z"/><path class="cls-1" d="M91,60.83a20.51,20.51,0,0,1,20.67-20.19c11.3.19,20.52,9.46,20.4,20.54A20.54,20.54,0,1,1,91,60.83Zm20.58,10.69A10.42,10.42,0,1,0,101,61.27,10.64,10.64,0,0,0,111.55,71.52Z"/><path class="cls-1" d="M135.45,60.93a20.46,20.46,0,1,1,20.26,20.64A20.37,20.37,0,0,1,135.45,60.93Zm30.79.13A10.38,10.38,0,1,0,156,71.52,10.43,10.43,0,0,0,166.24,61.06Z"/><path class="cls-1" d="M197.36,57.38c0,6.2,0,12.39,0,18.58,0,5-1.77,7.1-5.8,7.07s-5.65-2.09-5.66-7.19c0-10,0-19.9,0-29.86,0-1.82,0-2.91-2.48-3-3.93-.23-5.76-2.53-5.62-6s2.26-5.21,6.25-5.34c2.1-.07,4.21,0,6.31,0,5.27,0,7,1.69,7,6.88C197.37,44.78,197.36,51.08,197.36,57.38Z"/></svg>