<svg id="Layer_1" data-name="Layer 1" xmlns="http://www.w3.org/2000/svg" viewBox="0 0 414.72 75.77"><defs><style>.cls-1{fill:#fff;}</style></defs><title>assets</title><path class="cls-1" d="M44.26,48.11c-1.08-1-1.06-1.23,0-2.26,4.89-4.74,8-10.35,8.38-17.3.47-9.5-2.72-17.34-10.41-23.23-12-9.15-28.48-5.83-36.68,4.86A27.63,27.63,0,0,0,0,27.77C.11,41.59,0,55.42,0,69.24A5.88,5.88,0,0,0,5.93,75.1a6.06,6.06,0,0,0,5.88-5.79c0-3.16,0-6.32,0-9.49h-.06q0-4.8,0-9.62c0-.37-.17-.84.22-1.08s.82,0,1.19.26a20.91,20.91,0,0,0,4.35,2c3.34,1.22,6.84,1.46,10.33,1.78A14.07,14.07,0,0,1,39,60.25a15.58,15.58,0,0,1,2.06,8.84,6.17,6.17,0,0,0,5.49,6,5.83,5.83,0,0,0,6.24-5.87C53.12,61,50.49,53.8,44.26,48.11Zm-16.18-6.9Zm-4.17,0v0Zm0,.09ZM26.09,41A14.33,14.33,0,0,1,11.9,26.38a14.39,14.39,0,0,1,14.52-14.5A14.56,14.56,0,1,1,26.09,41Z"/><path class="cls-1" d="M414.69,58.38c0-2.51,0-5,0-7.54a39.24,39.24,0,0,0-.91-8.63c-1.93-8.44-6.48-14.37-15.45-15.83-6-1-11.53.31-16.11,4.59-.52.49-.87.92-1.56.21a17.06,17.06,0,0,0-9.76-4.81c-7.6-1.25-15.17,1.52-19.31,8.49a25.57,25.57,0,0,0-3.52,12.36c-.27,7.32-.12,14.65-.15,22,0,2.67,1.46,5.12,3.55,5.83a6.22,6.22,0,0,0,7.13-2,6.92,6.92,0,0,0,1.09-4.44c0-6.2,0-12.39,0-18.59a20,20,0,0,1,1.63-8.22c1.37-3,3.86-3.93,6.87-3.88,2.55.05,4.87,2,5.89,4.61,1.18,3,1.2,6.19,1.24,9.35.06,5.76-.05,11.52,0,17.29,0,3.62,2.23,6.51,6.3,6.34,3.41-.14,5.65-2.72,5.64-6.61q0-9.36,0-18.72a20.76,20.76,0,0,1,1.23-7.64,7,7,0,0,1,5.5-4.62,6.34,6.34,0,0,1,6.39,2.59c1.81,2.29,2.27,5.07,2.34,7.83.17,6.75.12,13.51.16,20.27a10.2,10.2,0,0,0,.15,2.07A5.51,5.51,0,0,0,406.5,75c4.38,1.51,8.33-1.16,8.21-5.7C414.62,65.66,414.69,62,414.69,58.38Z"/><path class="cls-1" d="M85.61,26.37A23.68,23.68,0,0,0,66.77,31.6c-6.91,5.59-11.1,15.86-7.89,25.85A24,24,0,0,0,72,72.59,22.81,22.81,0,0,0,83.83,74.7,25.21,25.21,0,0,0,93.4,72a1.67,1.67,0,0,1,2.57.69A5,5,0,0,0,101,75a6,6,0,0,0,5.37-6.41V59h.09c0-2.77,0-5.54,0-8.31A24.27,24.27,0,0,0,85.61,26.37Zm4.1,34A14.32,14.32,0,0,1,83.43,63H80.67a13.39,13.39,0,0,1-8.56-5.13c-5-6.57-1.61-16.9,6.33-19.21A12,12,0,0,1,91.24,42,12.33,12.33,0,0,1,89.71,60.36Z"/><path class="cls-1" d="M183.4,44.52a24.11,24.11,0,0,0-20.24-18.2A23.11,23.11,0,0,0,144.09,32c-7.94,6.87-10.5,15.58-7.4,25.64C141.54,73.31,158,78.65,171.06,72c1.06-.53,1.41-.32,1.92.65a5.73,5.73,0,0,0,4.7,3.07c3,.28,5.92-2.41,6.18-5.41.31-3.68,0-7.37.15-10.47s0-5.43,0-7.86A27.61,27.61,0,0,0,183.4,44.52ZM163.29,62.44c-.61.21-1.25.33-1.88.49h-2.74a12.49,12.49,0,1,1,13.05-16.18C173.73,53.82,170.26,60.14,163.29,62.44Z"/><path class="cls-1" d="M332.58,31.69a23.18,23.18,0,0,0-20.24-5,24.13,24.13,0,0,0-12.41,6.62,23.23,23.23,0,0,0-7.06,16.27c-.35,14,10.32,25.23,24.36,25.25a24.3,24.3,0,0,0,24.28-24.21C341.42,43,338.57,36.53,332.58,31.69ZM317.24,62.93c-7.44-.1-12.54-5.59-12.49-12.39C304.8,43.07,310.23,38,317.24,38A12.18,12.18,0,0,1,329.7,50.32,12.42,12.42,0,0,1,317.24,62.93Z"/><path class="cls-1" d="M286.61,60.76c-2.05-1.77-4.76-1.79-7.45,0a11.86,11.86,0,0,1-7.07,2.21,13.5,13.5,0,0,1-7.41-2.39,12.48,12.48,0,0,1-4.23-14.66,12.73,12.73,0,0,1,13.43-7.77,14.7,14.7,0,0,1,5.5,2.22,6.11,6.11,0,0,0,3.79,1.16,6.19,6.19,0,0,0,5.42-4.38A6,6,0,0,0,286,30.53a25.38,25.38,0,0,0-10.94-4.24A23.36,23.36,0,0,0,262.7,28a24.35,24.35,0,0,0,8.76,46.81,23.59,23.59,0,0,0,14.65-4.48A5.91,5.91,0,0,0,286.61,60.76Z"/><path class="cls-1" d="M120.74,2.12A6,6,0,0,0,115,8.26q0,15.14,0,30.27h0V61.79c0,2.43-.06,4.86,0,7.28.08,2.86,2,5,5,5.82,1.85.5,4.46-.81,5.81-2.79a6.7,6.7,0,0,0,1-4q.06-29.62.08-59.25a9.61,9.61,0,0,0-.29-2.45A5.85,5.85,0,0,0,120.74,2.12Z"/><path class="cls-1" d="M205,7.21a5.72,5.72,0,0,0-6.28-5.07,5.82,5.82,0,0,0-5.36,6.08V38.38h0c0,8.79,0,17.59,0,26.39,0,1.68-.13,3.36,0,5,.34,3.6,4.8,6.07,7.58,4.78s4.18-3,4.18-6.44q0-29.32,0-58.63A13.8,13.8,0,0,0,205,7.21Z"/><path class="cls-1" d="M227.06,50.68q0-8.38,0-16.76a14.37,14.37,0,0,0-.43-3.79c-.8-3.05-5.18-5.14-8.34-3.31-2.57,1.49-3,3.89-3,6.49,0,11.35,0,22.7,0,34.05a20.49,20.49,0,0,0,.12,2.6,5.84,5.84,0,0,0,6,5.1,6.09,6.09,0,0,0,5.64-6Q227,59.85,227.06,50.68Z"/><path class="cls-1" d="M239,61.69a6.68,6.68,0,0,0-6.64,6.46,6.78,6.78,0,0,0,6.51,6.91c3.27.12,6.49-3.18,6.54-6.51A6.78,6.78,0,0,0,239,61.69Z"/><path class="cls-1" d="M221.24,5a6,6,0,0,0-6.06,5.85c-.17,3.17,2.88,6.09,6,6.06a6.29,6.29,0,0,0,5.87-5.72A6.07,6.07,0,0,0,221.24,5Z"/></svg>