<svg id="Layer_1" data-name="Layer 1" xmlns="http://www.w3.org/2000/svg" viewBox="0 0 494.1 136.27"><defs><style>.cls-1{fill:#fff;}</style></defs><title>assets</title><path class="cls-1" d="M460.33,91.54c-1.29,1.78-2.53,3.6-3.88,5.32a47.64,47.64,0,0,1-12,11.29A19.07,19.07,0,0,1,434,111.42c-6.68-.07-11.17-3.73-12.48-10.32a35.44,35.44,0,0,1,.76-15.7c2-7.75,5.93-14.45,10.94-20.6a45.08,45.08,0,0,1,16.36-13,36.45,36.45,0,0,1,16-3.42c6.21.15,12.41.55,18.61.84a4.22,4.22,0,0,1,.53.1c-.26,1.07-.52,2.1-.77,3.14-1.28,5.18-2.69,10.32-3.8,15.54-2,9.52-3.88,19.08-5.78,28.63a35,35,0,0,0-.51,4c-.07.91.32,1.28,1.19,1a16.58,16.58,0,0,0,3.69-1.59,50,50,0,0,0,9.58-8.62c1.89-2,3.75-4.11,5.74-6.12-.26,1.38-.53,2.75-.8,4.12-.55,2.75-1.09,5.5-1.65,8.24a2,2,0,0,1-.39,1,54.39,54.39,0,0,1-11.4,9.62,21.67,21.67,0,0,1-10.06,3.43,11.72,11.72,0,0,1-6.28-1.11c-2.75-1.46-4-3.89-4.4-6.86s.21-6,.72-8.95c.18-1,.4-2.05.6-3.08ZM467,59.93c-1.14-.37-2.18-.75-3.23-1a23.54,23.54,0,0,0-8.62-1c-3.54.32-6.2,2.24-8.41,4.89a36.52,36.52,0,0,0-5.23,9.42c-2.81,6.63-4.86,13.46-5,20.75a11.87,11.87,0,0,0,.7,4.94,1.88,1.88,0,0,0,2.53,1.26,6.67,6.67,0,0,0,2.12-.91,50.17,50.17,0,0,0,5.1-4.06,98.29,98.29,0,0,0,16.78-22.15,13.3,13.3,0,0,0,1.77-4.82c.06-.42.17-.83.25-1.25C466.13,64,466.54,62,467,59.93ZM151.45,104.15l1.26.66a46.46,46.46,0,0,0,27.09,5.64A38.66,38.66,0,0,0,198.22,104c4.07-2.79,7.56-6.13,9.71-10.65a18.77,18.77,0,0,0,1.53-13.44,22.35,22.35,0,0,0-6-9.78c-3.18-3.16-6.56-6.11-9.9-9.1a90.63,90.63,0,0,1-9.12-8.73c-4.32-5.12-3.6-11.77,1.69-15.87a15.22,15.22,0,0,1,10.55-2.93,14,14,0,0,1,8,2.57,7.48,7.48,0,0,1,3.13,6.85l-.24,3.88,7.46,0q1.65-8.1,3.3-16.13c.09-.43-.1-.57-.44-.71-1.34-.57-2.65-1.18-4-1.72-5.33-2.11-10.77-3.58-16.58-3.37A31.4,31.4,0,0,0,178,32.06c-5.41,4.46-8.9,10-9.44,17.14A18.21,18.21,0,0,0,170,58.8a18.86,18.86,0,0,0,4.2,5.27c4.36,4.1,8.8,8.12,13.23,12.15a43.22,43.22,0,0,1,6.36,6.68,11.57,11.57,0,0,1,2.51,5.87,11.15,11.15,0,0,1-6.05,11.14c-3.76,2.15-7.85,2.2-12,1.54a29.93,29.93,0,0,1-13.63-6.29c-.85-.66-1.68-1.34-2.56-2L151.32,104C151.38,104.08,151.4,104.13,151.45,104.15ZM293.84,86.94c0,3.27.19,6.39,1.64,9.3a7.09,7.09,0,0,0,6.27,4,24.64,24.64,0,0,0,11-2.16,73.19,73.19,0,0,0,14.5-8.31l2.47-1.68c-.69,3.41-1.34,6.64-2,9.88a.91.91,0,0,1-.35.53c-6.53,4.51-13.31,8.56-21,10.81a29.86,29.86,0,0,1-10.83,1.3c-6.76-.55-11.62-4-14.75-9.93a22.94,22.94,0,0,1-2.41-11.26c.14-10.41,4.13-19.32,10.6-27.25A46.54,46.54,0,0,1,302.1,50.66a28.12,28.12,0,0,1,14.27-3.78,12,12,0,0,1,12.08,9.91,19.68,19.68,0,0,1-4.93,17.35c-5,5.73-11.47,9.2-18.75,11.22A48.3,48.3,0,0,1,293.84,86.94Zm.55-7.92c.27,0,.45,0,.62,0a31.47,31.47,0,0,0,11.12-3.41c5.14-2.84,8.49-6.9,8.49-13.07a15.55,15.55,0,0,0-.49-3.84,2.71,2.71,0,0,0-3-2.14A8.41,8.41,0,0,0,306.43,58a21.31,21.31,0,0,0-5.57,5.63A36.86,36.86,0,0,0,294.39,79Zm78.73,7.1c-4.23,3.65-8.44,7.33-12.7,10.93a20.76,20.76,0,0,1-5.74,3.68c-1.33.51-1.82.16-1.64-1.24.25-1.91.52-3.82.9-5.71q2.87-14.2,5.8-28.4c1.41-6.87,2.81-13.74,4.34-20.58a62.59,62.59,0,0,1,4.42-13.37c2.7-5.7,7.21-8.26,14-7.52a25.64,25.64,0,0,1,8.45,2.79,1.1,1.1,0,0,0,1.52-.31c2.31-2.43,4.66-4.83,7-7.24l3.18-3.3a1.27,1.27,0,0,0-.27-.16,47,47,0,0,0-11.65-2.08,38.32,38.32,0,0,0-18.38,3.61,41,41,0,0,0-16.7,15.38A65.19,65.19,0,0,0,347,54.89q-3.81,18.42-7.52,36.87a38.82,38.82,0,0,0-1.05,10.8c.39,4.79,3.43,7.9,8.21,8.33a19.14,19.14,0,0,0,10.75-2.51c5.25-2.76,9.62-6.66,13.76-10.84a1.47,1.47,0,0,0,.29-.66q.78-3.8,1.54-7.58c.23-1.17.46-2.33.74-3.71ZM412.46,89c-1.71,1.44-3.4,2.9-5.12,4.31a36.85,36.85,0,0,1-9.21,6,16.88,16.88,0,0,1-4.05,1c-.9.14-1.28-.24-1.29-1.15a21.89,21.89,0,0,1,.27-3.88c.74-4.09,1.56-8.16,2.39-12.24,1.71-8.46,3.46-16.92,5.16-25.38.12-.59.32-.75.92-.76a115.93,115.93,0,0,1,13.94.87,1.08,1.08,0,0,0,1-.37c2.56-2.75,5.15-5.48,7.72-8.22a3.66,3.66,0,0,0,.32-.47l-22.06-.12,3.68-18.11-.5.09q-7.31,1.71-14.61,3.45a1,1,0,0,0-.57.64c-.66,3.09-1.28,6.18-1.92,9.27-.32,1.53-.64,3.06-1,4.61-2.61,0-5.14,0-7.67,0a1.61,1.61,0,0,0-1,.44c-2.07,2.15-4.11,4.33-6.15,6.5-.37.39-.72.79-1.18,1.3l14.32.08c0,.18,0,.3-.06.42-2.26,11-4.54,22.07-6.77,33.11a37.61,37.61,0,0,0-.9,11.49c.59,5.37,4.09,8.85,9.44,9.3a21.51,21.51,0,0,0,10.46-1.87,40.74,40.74,0,0,0,12.07-8.56,3.1,3.1,0,0,0,.71-1.34c.29-1.08.47-2.2.7-3.3.49-2.45,1-4.9,1.51-7.58Zm-144.38.67a67.79,67.79,0,0,1-13.55,7.86,25.81,25.81,0,0,1-11.38,2.29,6.65,6.65,0,0,1-6.1-4A15.56,15.56,0,0,1,235.77,90a53.33,53.33,0,0,1,.83-12.42,35.84,35.84,0,0,1,6.63-15.69c3.89-5.07,8.89-7.4,15.32-6.14,3.26.64,4.65,2.63,4.08,5.91-.1.62-.23,1.23-.35,1.84-.23,1.17-.46,2.33-.71,3.57,2.37,0,4.62,0,6.87.06a.82.82,0,0,0,1-.73c1.27-4.87,2.57-9.73,3.86-14.59.43-1.59.42-1.59-1.11-2.28a31,31,0,0,0-26.27-.19,40.93,40.93,0,0,0-13,9.51c-7,7.3-11.72,15.7-12.93,25.87a30.59,30.59,0,0,0,.6,11.86,18,18,0,0,0,17.88,13.76,32.8,32.8,0,0,0,11.17-2.08c6.28-2.21,12-5.55,17.56-9.11a4.06,4.06,0,0,0,2.11-3.07c.42-2.76,1.05-5.5,1.64-8.44Z"/><path class="cls-1" d="M13.05,49C2.81,24.78,32.62,2.46,32.62,2.46c-.26.87-.49,1.73-.7,2.58C23.05,40.55,52.66,51,78.3,73.46c26.25,23,14.61,45.73,14.61,45.73.17-30.81-17.07-31.72-30.26-37.44C52.11,77.17,23.51,73.74,13.05,49ZM128.58,4.55c-.07-.11.92,2,.92,2A53.29,53.29,0,0,1,133,17.13a54.69,54.69,0,0,0-5-9.09,62.76,62.76,0,0,1,2.74,9,40.73,40.73,0,0,0-5.7-6C118.74,5.69,109.69-1.35,92.53.22c-17.84,1.64-33,20.17-29.27,38.86S83,69.57,95.33,84.55c17.22,20.9,6.91,41-4,43.07-13.28,2.47-27-13-29.19-10.14-3.15,4,16.63,20.39,32.4,18.66,16.07-1.76,26.41-11.14,29-26.29s-4.8-29.89-17-42.15-23.44-22.87-25.28-34c-1.36-8.2,2.93-24.85,16.46-26.53,6.76-.85,15.36.77,19.24,9.25,0,0-9.67,12,2.72,23.31,0,0-1,13.38.38,14.06,1.71.52,6.68-13.49,6.68-13.49a10.54,10.54,0,0,0,7.54-6.66,11.81,11.81,0,0,0,2.6-6.72C137.39,17.1,132.15,10.28,128.58,4.55ZM127.93,8ZM62,99.58c19.46,0,28.15,15,27.76,19.55,0,0,4.82-21.34-18.79-29.78C44.35,79.85,18.49,78.8,7,43.74c0,0-13.53,30-2.83,43.35S41.15,99.62,62,99.58Zm25.2,19.2s-6.67-19-32.64-15.66c-17.38,2.26-36.09-3.43-36.09-3.43S25,116.13,39.94,118.25C55.58,120.47,61.13,105.88,87.2,118.78Z"/></svg>