<svg id="Layer_1" data-name="Layer 1" xmlns="http://www.w3.org/2000/svg" viewBox="0 0 392.93 130.25"><defs><style>.cls-1{fill:#fff;}</style></defs><title>assets</title><path class="cls-1" d="M54.59,124.74c-11.66,0-23.32-.13-35,.05-6.51.1-12.3-5.3-14.39-10.38-.6-1.44-.42-3-.53-4.53C4.18,102.93,3.81,96,3.35,89s-1-13.69-1.41-20.54C1.59,63.31,1.28,58.13.94,53,.67,48.85.37,44.74.1,40.63a6.81,6.81,0,0,1,.25-3.47A3.91,3.91,0,0,1,4.26,34.8c7.89,0,15.78,0,23.67,0,2.28,0,2.21,0,2.36-2.21.59-8.35,2.43-16.34,7.53-23.2C42.05,3.7,47.49-.1,54.91,0,61,.09,65.79,3.07,69.64,7.59c5.44,6.37,7.78,14.08,9.29,22.12a22.9,22.9,0,0,1,.52,3.47c0,1.38.74,1.66,2,1.65,4.78,0,9.57,0,14.35,0,3.26,0,6.52,0,9.78,0,2.77,0,4.36,1.53,4.22,4.25-.31,6.09-.73,12.18-1.12,18.27q-.49,7.92-1,15.83l-1.47,23c-.32,5-.49,10-1,14.91a15.52,15.52,0,0,1-15.32,13.67Zm.3-89.93H71.07c2,0,2.18-.24,1.84-2.24-.26-1.55-.52-3.11-.86-4.65C70.73,22,68.76,16.35,64.76,11.65c-2.7-3.18-6-5.31-10.39-5.22-4.76.09-8.16,2.67-10.89,6.18-4.65,6-6.29,13-6.75,20.39-.09,1.44.44,1.85,1.82,1.83C44,34.77,49.44,34.81,54.89,34.81Zm1.52,74.31a21.62,21.62,0,0,0,6.36-.66,16.18,16.18,0,0,0,11.84-14c.45-6.11-2.34-10.82-6.94-14.54-4.14-3.36-9-5.25-14.07-6.81a28.6,28.6,0,0,1-7.75-3.53c-4.34-2.94-4.86-7.38-1.51-11.38,4.76-5.69,15.82-6.29,20.78-.92a2.59,2.59,0,0,0,3.91.38,3,3,0,0,0,.47-4.36,10.14,10.14,0,0,0-2-1.9c-6.77-5.08-18.2-5-24.94.14C37,55.78,34.77,63.21,37.35,69.21c1.65,3.84,4.79,6.11,8.49,7.71s7.56,2.44,11.3,3.77a20.54,20.54,0,0,1,6.93,3.78C66.91,87,69,90,68.63,94c-.49,4.69-4.31,8.39-9.46,9-7,.77-13.43-.93-18.75-5.85-1.53-1.41-3-1.46-4.27-.12a2.91,2.91,0,0,0,0,4.34A14.8,14.8,0,0,0,38,103,28.8,28.8,0,0,0,56.41,109.12ZM277.14,79.05a18.63,18.63,0,0,1,26.85.08c6.23,6.71,6.64,17.47,1,24.35a18.91,18.91,0,0,1-27.83,1.42c-.53.43-.28,1-.28,1.54,0,6.77,0,13.54,0,20.31,0,2.35-1,3.47-3.09,3.5a2.77,2.77,0,0,1-3.18-2.58,14.13,14.13,0,0,1-.18-2.43q0-24.13,0-48.26a12.45,12.45,0,0,1,.15-2.12,3.17,3.17,0,0,1,6.3.47c0,1.17.05,2.34.08,3.51C277,78.88,277,78.91,277.14,79.05ZM279,91.85a11.59,11.59,0,1,0,11.47-11.68A11.63,11.63,0,0,0,279,91.85ZM175.33,106.12c4.63-4.06,6.83-9.05,5.37-15.26-1.24-5.27-4.62-9-9.07-11.77A48.11,48.11,0,0,0,159.75,74a26.09,26.09,0,0,1-7.61-3.46c-4.24-3-4.75-6.58-1.6-10.71C155,54,165.6,53.39,171.11,58.6c1.59,1.49,3.08,1.61,4.44.34a3.25,3.25,0,0,0,.08-4.78,11.67,11.67,0,0,0-3.56-2.84,22.47,22.47,0,0,0-21.93.36c-6.45,3.5-9.47,11.73-7,18.27,1.49,3.91,4.55,6.28,8.21,8s7.73,2.55,11.57,3.88a19.53,19.53,0,0,1,9,5.72c1.85,2.22,3.08,4.72,2.61,7.69a10,10,0,0,1-8.66,8.29,23.12,23.12,0,0,1-19.36-5.78,3,3,0,0,0-4.35-.07,3.14,3.14,0,0,0-.24,4.41,14.4,14.4,0,0,0,1.88,1.78c5.54,4.48,12,6.18,18.84,6.45C167.44,110.17,171.78,109.24,175.33,106.12Zm10.44-25.6q0,13,0,26.1c0,2.22,1.33,3.63,3.28,3.6s3.1-1.39,3.17-3.56c0-.51,0-1,0-1.53,0-6.16,0-12.32,0-18.47a4,4,0,0,1,1.3-3.11,15.5,15.5,0,0,1,11.79-4.41c4.82.21,7.63,3,7.64,7.84,0,6.52,0,13,0,19.54,0,2.28,1.22,3.66,3.17,3.7s3.27-1.36,3.28-3.62c0-7.13.1-14.25,0-21.38A11.87,11.87,0,0,0,211,73.7c-6-2-11.86-1.09-17.37,1.93-1.14.62-1.36.38-1.35-.8,0-3.82,0-7.63,0-11.45s0-7.43,0-11.15c0-2.35-1.34-3.54-3.54-3.39-1.93.13-2.9,1.34-2.9,3.74q0,13.44,0,26.87ZM377.4,94.75c-3.82,0-7.63,0-11.45,0-1.71,0-1.9.28-1.33,1.88,1.58,4.5,5.15,7,10.28,7.21A23.12,23.12,0,0,0,386.78,101a3.19,3.19,0,0,1,4.77,1.64,2.7,2.7,0,0,1-1,3.51c-7.3,4-15,5.77-23,2.56-6.16-2.46-9.19-7.54-10-13.93-.75-6.19.55-11.85,5.27-16.34C369,72.7,379,71.6,385.46,76.07c4.35,3,6.46,7.32,7.21,12.43.09.65.16,1.31.23,2,.26,2.59-1.14,4.24-3.75,4.27C385.23,94.78,381.32,94.75,377.4,94.75Zm-2.19-6.47c3.1,0,6.21,0,9.31,0,1.35,0,1.56-.42,1.18-1.62a9.45,9.45,0,0,0-9.52-6.91c-5.16,0-9.75,2.9-11.38,7.06-.42,1-.3,1.48.94,1.46C368.89,88.25,372.05,88.28,375.21,88.28Zm-38.88,6.49c-3.92,0-7.84,0-11.76,0-1.55,0-1.71.26-1.24,1.72a10.47,10.47,0,0,0,9.84,7.37,23.39,23.39,0,0,0,12.36-2.73c1.92-1,3.33-.67,4.42.87a3,3,0,0,1-.94,4.47c-5.9,3.16-12.14,4.69-18.84,3.49a17,17,0,0,1-13.94-16.31c-.26-5.66,1-10.84,5.21-14.93,5.6-5.46,14.5-6.94,21.21-3.51,5.36,2.73,7.86,7.44,8.77,13.17A20.35,20.35,0,0,1,351.7,91a3.35,3.35,0,0,1-3.62,3.78c-3.92,0-7.84,0-11.75,0Zm-2.51-6.47c3.2,0,6.41,0,9.61,0,1.17,0,1.44-.4,1.07-1.46a10.67,10.67,0,0,0-3.19-4.92C335.87,77.54,326,80.38,323.5,87c-.42,1.13,0,1.32,1,1.31C327.62,88.29,330.72,88.3,333.82,88.3ZM226.4,91.74a18.52,18.52,0,1,1,18.32,18.62A18.56,18.56,0,0,1,226.4,91.74Zm18.43,11.79a11.68,11.68,0,1,0,.07-23.36c-6.2-.11-11.62,5.33-11.67,11.73A11.84,11.84,0,0,0,244.83,103.53Z"/></svg>