<?xml version="1.0" encoding="utf-8"?>
<!-- Generator: Adobe Illustrator 25.0.0, SVG Export Plug-In . SVG Version: 6.00 Build 0)  -->
<svg version="1.0" id="icons" xmlns="http://www.w3.org/2000/svg" xmlns:xlink="http://www.w3.org/1999/xlink" x="0px" y="0px"
	 viewBox="0 0 96 96" style="enable-background:new 0 0 96 96;" xml:space="preserve">
<style type="text/css">
	.st0{fill:#FFFFFF;}
</style>
<path class="st0" d="M79.2,20.5c-0.6-0.3-1.3-0.7-1.9-1.1c-1.8-1.2-3.4-2.6-4.9-4.1C68.9,11.2,67.5,7,67,4h0c-0.4-2.4-0.2-4-0.2-4
	H50.3v63.7c0,0.9,0,1.7,0,2.5c0,0.1,0,0.2,0,0.3c0,0,0,0.1,0,0.1c0,0,0,0,0,0c-0.4,4.6-3,8.8-7,11.1c-2.1,1.2-4.4,1.8-6.8,1.8
	c-7.7,0-13.9-6.3-13.9-14s6.2-14,13.9-14c1.5,0,2.9,0.2,4.3,0.7l0-16.8c-8.5-1.1-17,1.4-23.6,6.9c-2.8,2.5-5.2,5.4-7.1,8.7
	c-0.7,1.2-3.3,6-3.6,13.8c-0.2,4.4,1.1,9,1.8,10.9v0c0.4,1.1,1.9,4.9,4.5,8.2c2,2.6,4.4,4.9,7.1,6.7v0l0,0c8,5.4,16.8,5.1,16.8,5.1
	c1.5-0.1,6.7,0,12.5-2.8c6.5-3.1,10.1-7.6,10.1-7.6c2.4-2.7,4.2-5.8,5.5-9.2c1.5-3.9,2-8.6,2-10.5V32.1c0.2,0.1,2.9,1.9,2.9,1.9
	s3.8,2.5,9.8,4.1c4.3,1.1,10.1,1.4,10.1,1.4V23.1C87.5,23.3,83.4,22.7,79.2,20.5z"/>
</svg>
