<svg id="Layer_1" data-name="Layer 1" xmlns="http://www.w3.org/2000/svg" viewBox="0 0 434.47 96.5"><defs><style>.cls-1{fill:#fff;}</style></defs><title>assets</title><path class="cls-1" d="M341.05,38.29c-9.71-5.42-18.7-4.39-25.2,2.57a15,15,0,0,0-2.24,17.44c2.89,5.38,8.39,7.91,15,6.89,10.29-1.6,14.84-7.92,14.3-18.46-.66-12.84-.76-25.71-.59-38.57C342.35,4,348.55.13,352,0c1.74-.06,1.08,1.53,1.1,2.41.17,12.76.38,25.52.39,38.28,0,6.15.66,12.33-1.55,18.36-4,11-15.4,17.81-26.16,16.75a25.64,25.64,0,0,1-23.38-23c-1.41-14.83,9.06-27.2,25-28.69,4.38-.41,8.35,1.15,12,3.55a2.21,2.21,0,0,1,1.11,1.89C340.67,32.31,340.86,35.1,341.05,38.29Z"/><path class="cls-1" d="M202.83,61.19c9.13,5,17.14,4.37,23.94-2a15.28,15.28,0,0,0,3-18.35c-2.61-5.22-8.55-7.83-15.28-6.71-9.55,1.59-14,6.73-14,16.39q0,21.75.19,43.5c0,2.44-.43,3.05-2.86,2.05-5.45-2.23-7.14-4.46-7.28-10.38q-.42-18.12-.84-36.24c-.26-12.27,9.54-23.92,21.62-25.74a25.72,25.72,0,0,1,28.74,18c5.25,16.4-7.89,34.8-27.84,33.18-3.06-.25-5.67-1.78-8.23-3.34a2,2,0,0,1-1.16-1.85C202.85,66.78,202.83,63.93,202.83,61.19Z"/><path class="cls-1" d="M89.21,40.63v-27c0-4.53,5-9.46,9.54-9.59,1.8,0,1.21,1.17,1.2,2-.07,6.47-.23,13-.32,19.42-.07,5.22,0,10.45-.16,15.66-.08,2.12.69,2.45,2.61,2.62,4.78.44,7.79-1.76,10.15-5.64a48,48,0,0,0,5.19-12.22c.43-1.58,1.07-2.42,2.64-2.44,3-.05,6-.06,9,0,1.3,0,1.95.38,1.37,1.95-2.53,6.9-5.13,13.77-10.16,19.33-1,1.14-.91,1.58.32,2.31a13.47,13.47,0,0,1,7.09,12.4c0,5.79.09,11.59.18,17.39,0,1.36-.45,1.77-1.72,1.17a38,38,0,0,1-8.67-5.72,3.29,3.29,0,0,1-.91-2.64c-.24-3.66-.5-7.32-.72-11-.18-3.07-1.59-4.62-4.63-4.54-3.27.08-6.54.53-9.81.75-1.45.1-1.9.69-1.86,2.18.18,5.89.12,11.8.36,17.69.09,2.36-.78,2.5-2.68,1.95-5.4-1.57-8-4.89-8-10.45Z"/><path class="cls-1" d="M419.9,60.33c0,3.6,0,6.76,0,9.92,0,1.27-.88,1.6-1.79,2-9.9,3.77-19.11,2.46-26.93-4.67s-10.43-16.47-7.31-26.65c3-10,10-15.82,20.51-17.67a26.1,26.1,0,0,1,28.49,15,9.24,9.24,0,0,1,.79,3.35c.22,10.53.44,21.07.79,31.6.08,2.38-.53,3.24-2.92,2.35-1.16-.43-2.44-.55-3.61-1-3.84-1.32-4.74-2.69-4.79-6.77-.09-7.05-.62-14.13-.25-21.15.53-10.16-11.69-17.22-21.05-12.82a15.85,15.85,0,0,0-7.72,21.3c4.08,8.37,13.6,11.36,22.46,7C417.52,61.7,418.42,61.14,419.9,60.33Z"/><path class="cls-1" d="M296.17,48.32A26.07,26.07,0,0,0,274.66,24c-20.36-3.27-34.72,17.06-28.48,33.87a25.93,25.93,0,0,0,42.18,10.17c4.43-4.24,4.32-4.35-.47-8.12a5.46,5.46,0,0,1-.44-.38c-1.49-1.76-2.35-1.23-3.68.47a15.81,15.81,0,0,1-16.38,6.24c-6.76-1.27-11.13-5.34-13.31-11.87-.71-2.14-.13-2.7,2-2.67,6.19.11,12.38,0,18.57,0s12.19-.17,18.27.08C295.89,52,296.28,50.77,296.17,48.32Zm-41-5.92c1.88-5.61,7.75-9.8,13.94-10,7.62-.29,13.93,3.42,16.65,10Z"/><path class="cls-1" d="M58.33,23.75c-14-.12-26.06,11.83-25.95,25.76A25.72,25.72,0,1,0,58.33,23.75ZM58,65A15.43,15.43,0,0,1,42.4,49.12,15.82,15.82,0,1,1,74,49.51C74,58.36,67.07,65,58,65Z"/><path class="cls-1" d="M158.88,23.76a25.78,25.78,0,0,0-25.66,26.17A25.48,25.48,0,0,0,158.89,75.1,25.18,25.18,0,0,0,184.3,49.49,25.56,25.56,0,0,0,158.88,23.76Zm0,41.26A15.77,15.77,0,0,1,143,49.31a15.94,15.94,0,1,1,31.87,0A15.82,15.82,0,0,1,158.9,65Z"/><path class="cls-1" d="M11.41,51.22c0,4.06.16,8.12-.06,12.17-.13,2.55.86,3.14,3.18,3.06,4-.15,7.92,0,11.88-.08,1.78-.05,2.27.51,2.29,2.28.12,8,.18,8-7.79,8-2.51,0-5,0-7.53,0A13.07,13.07,0,0,1,.15,63.55C.14,51.28.45,39,0,26.74c-.21-5.8,2.52-9,7-11.52,1.23-.7,2.66-2.13,3.88-1.52,1.38.7.44,2.62.51,4a30.21,30.21,0,0,1-.1,5.21c-.3,2.45.35,3.45,3.06,3.27,4-.25,7.93,0,11.88-.1,1.82-.05,2.51.38,2.52,2.37.05,7.45.13,7.45-7.23,7.44-2.61,0-5.22.1-7.82,0-1.83-.1-2.31.6-2.27,2.33.1,4.35,0,8.7,0,13Z"/><path class="cls-1" d="M374.68,49.61c0,7.24-.05,14.49,0,21.73,0,2.14-.44,2.72-2.62,1.89-6-2.29-7.78-4.47-7.63-10.56.28-11.78.15-23.56,0-35.35,0-2.4.65-3.16,2.94-2.48a6.15,6.15,0,0,0,1.43.16c5.82.34,5.82.34,5.82,6.07Z"/><path class="cls-1" d="M369.07,19.53c-3-.05-6-3.05-6-5.94s3.21-5.92,6-5.93a6.12,6.12,0,0,1,5.82,6A6,6,0,0,1,369.07,19.53Z"/></svg>