<svg id="Layer_1" data-name="Layer 1" xmlns="http://www.w3.org/2000/svg" viewBox="0 0 105.79 105.68"><defs><style>.cls-1{fill:#fff;}</style></defs><title>assets</title><path class="cls-1" d="M79.44,64a13.53,13.53,0,0,1-1,4.84,7.63,7.63,0,0,1-3,3.25,13.94,13.94,0,0,1-7.57,2.63A13.28,13.28,0,0,1,63.39,74a60.46,60.46,0,0,1-11.1-4.35A42.84,42.84,0,0,1,41.35,60.9a66.1,66.1,0,0,1-8-10.66A19.24,19.24,0,0,1,30.49,42a13.32,13.32,0,0,1,3.07-10.17c.27-.32.57-.62.84-.94a4.8,4.8,0,0,1,4.09-1.78c.26,0,.51,0,.77,0h0c.31,0,.62,0,.93,0a2.15,2.15,0,0,1,2.3,1.3c.46.95.86,1.93,1.27,2.9,1,2.35,2,4.71,2.94,7a2.49,2.49,0,0,1,0,2.15,16.29,16.29,0,0,1-3,4c-1,1.08-1,1.53-.29,2.79A32.36,32.36,0,0,0,59,63c.33.14.66.31,1,.44a1.6,1.6,0,0,0,2.14-.51c1.24-1.48,2.47-3,3.65-4.49.92-1.19,1.4-1.44,2.78-.84,2.06.88,4.07,1.87,6.09,2.83,1.22.57,2.41,1.21,3.63,1.78A1.81,1.81,0,0,1,79.44,64Zm26.33-11.69a52.18,52.18,0,0,1-4.81,21A52.34,52.34,0,0,1,87.87,90.53a51.46,51.46,0,0,1-33.55,12.55c-1.43,0-2.87-.06-4.29-.18a50.9,50.9,0,0,1-19.85-5.81L21.77,99.8l-2.78.9c-.4.13-.71.21-.88.25L18,101,0,105.68S7.27,84.13,7.63,83.05c.27-.78.53-1.57.8-2.36l1.15-3.41A47.62,47.62,0,0,1,3.69,61.66,52.93,52.93,0,0,1,4.91,36.24,52.55,52.55,0,0,1,18.35,14.59,49.77,49.77,0,0,1,39.15,2.25,51,51,0,0,1,51.57.07C52.49,0,53.42,0,54.33,0A50.15,50.15,0,0,1,76.42,5a51.1,51.1,0,0,1,25.45,26.82A49.24,49.24,0,0,1,105.77,52.35ZM92.61,35.76A41.1,41.1,0,0,0,72,14.08a41.56,41.56,0,0,0-29.92-2.23A39.85,39.85,0,0,0,25.45,21.7C14.82,32.32,10.88,45.09,13.58,59.85a38.73,38.73,0,0,0,6.78,15.59.84.84,0,0,1,.17.85c-1.14,3.32-2.25,6.65-3.37,10l-1.68,5a3.33,3.33,0,0,0,.42-.11c4.93-1.59,9.86-3.17,14.79-4.78A1.37,1.37,0,0,1,32,86.5a40.57,40.57,0,0,0,18.88,6.38A41.24,41.24,0,0,0,81.24,83,40.77,40.77,0,0,0,95.72,52.1,39.15,39.15,0,0,0,92.61,35.76Z"/></svg>