<svg id="Layer_1" data-name="Layer 1" xmlns="http://www.w3.org/2000/svg" viewBox="0 0 363.77 106.88"><defs><style>.cls-1{fill:#fff;}</style></defs><title>assets</title><path class="cls-1" d="M363,0H.08S0,.1,0,.15V106.88H363.62a3.41,3.41,0,0,0,.15-.69V0Zm-8.52,97.75H9.16V9.31H354.51ZM294.93,69.13l-4,6L293.74,77l4-6,.71.41c7,3.77,14,3.85,20.82-.18,11.51-6.78,14.51-22.86,6.4-33.67-.94-1.25-2-2.38-3.11-3.62q1.71-2.53,3.51-5.25l-2.82-1.89L319.8,32l-.81-.47a20.66,20.66,0,0,0-23.63,2.19,23.57,23.57,0,0,0-4.14,30.8C292.31,66.15,293.66,67.57,294.93,69.13ZM320.7,36.8c.14-.21.29-.41.43-.61l.28,0a26.47,26.47,0,0,1,.54,3.72q.07,11.74,0,23.47a11.92,11.92,0,0,1-.54,3.29,7,7,0,0,1-4.34,4.68,20,20,0,0,1-15.57-.1A13,13,0,0,1,299.45,70c-.51-.33-.56-.68-.18-1.24q3.9-5.73,7.74-11.5Q313.85,47,320.7,36.8Zm-23.59,1.69a7.81,7.81,0,0,1,5.79-7.24,20.22,20.22,0,0,1,14.15.34,11.54,11.54,0,0,1,1.49.75c.24.14.45.32.71.51L297.44,65.39l-.22,0c-.08-.94-.22-1.87-.23-2.81q0-10,0-20C297,41.18,297,39.83,297.11,38.49ZM32.1,74.25a2.22,2.22,0,0,1,.34-1.9Q46.69,51.79,60.91,31.19l.74-1.09c-.39,0-.63,0-.87,0-5.06,0-10.11,0-15.17,0a1.25,1.25,0,0,0-1.18.61c-3,4.32-5.94,8.61-8.9,12.92-.28.41-.55.75-1.16.52V29H71.8a6.3,6.3,0,0,1-.54,1.51Q56.85,51.42,42.38,72.32l-.55.84c.33,0,.57,0,.81,0q8.43,0,16.85,0a1.27,1.27,0,0,0,1.17-.63c3-4.32,5.94-8.62,8.9-12.93.29-.43.59-.67,1.15-.44v15Zm167.28-.5H185.87a6.27,6.27,0,0,1,.56-1.41c1.69-2.28,3.44-4.53,5.14-6.81a2.15,2.15,0,0,0,.39-1.17q0-13.61,0-27.21a2.13,2.13,0,0,0-.45-1.22c-1.37-1.8-2.81-3.54-4.17-5.34a8.67,8.67,0,0,1-.75-1.73c.54,0,.81-.06,1.07-.06,2.59,0,5.19,0,7.78,0a1.41,1.41,0,0,1,1.27.6q12.15,15.51,24.34,31l.57.7.17-.07v-.74c0-7.29,0-14.58,0-21.87a2.5,2.5,0,0,0-.46-1.37c-1.66-2.25-3.38-4.45-5.05-6.7a6.49,6.49,0,0,1-.59-1.45h13.49a7,7,0,0,1-.6,1.47c-1.63,2.2-3.3,4.38-5,6.55a2.42,2.42,0,0,0-.55,1.59q0,17.37,0,34.75v.94a1.45,1.45,0,0,1-1.72-.55q-13.58-17.23-27.21-34.43l-.78-1c0,.35-.07.55-.07.75q0,12.74,0,25.46a2,2,0,0,0,.39,1.09c1.7,2.29,3.45,4.53,5.14,6.82A6.07,6.07,0,0,1,199.38,73.75ZM240.2,64a27.22,27.22,0,0,1-2.72-15.16,22.79,22.79,0,0,1,3.83-11.49,18.64,18.64,0,0,1,17.35-8.46c3.93.22,7.18,2.19,10.11,4.71.48.42.93.86,1.47,1.36l1.64-1.76c1-1.11,2.06-2.24,3.13-3.33a5.11,5.11,0,0,1,1.09-.58v15c-.6.24-.84,0-1.1-.5a34.13,34.13,0,0,0-8.13-10.07,14.74,14.74,0,0,0-13.6-3.18,8.39,8.39,0,0,0-6.62,8c-.09,4.82,0,9.65,0,14.48,0,3.68,0,7.36,0,11.05a8.4,8.4,0,0,0,6.91,8.61c3.19.64,6.37.7,9.38-.81a9.23,9.23,0,0,0,5.34-6.61,5.43,5.43,0,0,0,.07-1c0-3.22,0-6.45,0-9.68v-.79h-10.8v-1h18.54v20.8a1.24,1.24,0,0,1-1.44-.43c-1.54-1.75-3.13-3.47-4.77-5.26-.23.25-.44.46-.63.68a15.47,15.47,0,0,1-8.8,5.38A19,19,0,0,1,240.2,64ZM148.5,74.2H112.56v-1c1.1,0,2.21,0,3.31,0,.69,0,.91-.15.9-.87q0-20.73,0-41.46c0-.25,0-.5,0-.84H113V28.84h15.37V30h-3.67V73.15h.83c4,0,7.93,0,11.89,0a1.39,1.39,0,0,0,1.29-.71Q143,66,147.42,59.58a3.88,3.88,0,0,1,.88-.7,2.2,2.2,0,0,0,.2.23Zm26.33,0H158.32v-1.1h4.25V29.89h-4.25v-1h16.52v1h-4.18V73.06h4.17Zm-72.1,0H86.2V73.08h4.23V29.92H86.21V28.85h16.5v1h-4.2V73.06h4.22Z"/></svg>